<?xml version="1.0" encoding="UTF-8" standalone="no"?>
<!-- Created with Inkscape (http://www.inkscape.org/) -->

<svg
   xmlns:osb="http://www.openswatchbook.org/uri/2009/osb"
   xmlns:dc="http://purl.org/dc/elements/1.1/"
   xmlns:cc="http://creativecommons.org/ns#"
   xmlns:rdf="http://www.w3.org/1999/02/22-rdf-syntax-ns#"
   xmlns:svg="http://www.w3.org/2000/svg"
   xmlns="http://www.w3.org/2000/svg"
   xmlns:xlink="http://www.w3.org/1999/xlink"
   xmlns:sodipodi="http://sodipodi.sourceforge.net/DTD/sodipodi-0.dtd"
   xmlns:inkscape="http://www.inkscape.org/namespaces/inkscape"
   width="111.48556mm"
   height="98.885475mm"
   viewBox="0 0 395.02751 350.38161"
   id="svg2"
   version="1.1"
   inkscape:version="0.91 r13725"
   sodipodi:docname="tower.svg">
  <defs
     id="defs4">
    <linearGradient
       id="linearGradient4599"
       osb:paint="solid">
      <stop
         style="stop-color:#0000ff;stop-opacity:1;"
         offset="0"
         id="stop4601" />
    </linearGradient>
    <linearGradient
       id="linearGradient4576"
       osb:paint="solid">
      <stop
         style="stop-color:#a70000;stop-opacity:1;"
         offset="0"
         id="stop4578" />
    </linearGradient>
    <linearGradient
       osb:paint="gradient"
       id="linearGradient4433">
      <stop
         style="stop-color:#000000;stop-opacity:0.20786516"
         offset="0"
         id="stop4435" />
      <stop
         id="stop4437"
         offset="0.35665572"
         style="stop-color:#000000;stop-opacity:0" />
      <stop
         style="stop-color:#000000;stop-opacity:0"
         offset="0.64907753"
         id="stop4582" />
      <stop
         style="stop-color:#000000;stop-opacity:0.20786516"
         offset="1"
         id="stop4439" />
    </linearGradient>
    <linearGradient
       id="linearGradient4427"
       osb:paint="solid">
      <stop
         style="stop-color:#550000;stop-opacity:1;"
         offset="0"
         id="stop4429" />
    </linearGradient>
    <linearGradient
       inkscape:collect="always"
       id="linearGradient4419"
       osb:paint="gradient">
      <stop
         style="stop-color:#000000;stop-opacity:1"
         offset="0"
         id="stop4421" />
      <stop
         style="stop-color:#000000;stop-opacity:0;"
         offset="1"
         id="stop4423" />
    </linearGradient>
    <linearGradient
       id="linearGradient4354-2"
       osb:paint="gradient">
      <stop
         id="stop4364"
         offset="0"
         style="stop-color:#000000;stop-opacity:0.71348315" />
      <stop
         style="stop-color:#000000;stop-opacity:0"
         offset="0.5"
         id="stop4372" />
      <stop
         id="stop4366"
         offset="1"
         style="stop-color:#000000;stop-opacity:0.71348315" />
    </linearGradient>
    <linearGradient
       inkscape:collect="always"
       id="linearGradient4354"
       osb:paint="gradient">
      <stop
         style="stop-color:#ff8345;stop-opacity:1;"
         offset="0"
         id="stop4356" />
      <stop
         style="stop-color:#a70000;stop-opacity:0"
         offset="1"
         id="stop4358" />
    </linearGradient>
    <linearGradient
       inkscape:collect="always"
       xlink:href="#linearGradient4433"
       id="linearGradient4580"
       x1="491.85352"
       y1="213.07715"
       x2="741.00391"
       y2="213.07715"
       gradientUnits="userSpaceOnUse"
       gradientTransform="matrix(1.1818657,0,0,1.1044598,-335.45045,73.607207)" />
    <radialGradient
       inkscape:collect="always"
       xlink:href="#linearGradient4419"
       id="radialGradient4611"
       cx="393.35437"
       cy="437.7399"
       fx="393.35437"
       fy="437.7399"
       r="171.13441"
       gradientTransform="matrix(0.99560653,-1.736587e-8,0,0.24249439,2.4424757,330.37616)"
       gradientUnits="userSpaceOnUse" />
  </defs>
  <sodipodi:namedview
     id="base"
     pagecolor="#ffffff"
     bordercolor="#666666"
     borderopacity="1.0"
     inkscape:pageopacity="0.0"
     inkscape:pageshadow="2"
     inkscape:zoom="0.7"
     inkscape:cx="482.44022"
     inkscape:cy="6.4605803"
     inkscape:document-units="px"
     inkscape:current-layer="layer1"
     showgrid="false"
     inkscape:snap-grids="true"
     inkscape:object-nodes="true"
     inkscape:snap-bbox="true"
     inkscape:snap-bbox-edge-midpoints="true"
     inkscape:bbox-nodes="true"
     inkscape:window-width="1920"
     inkscape:window-height="1016"
     inkscape:window-x="0"
     inkscape:window-y="27"
     inkscape:window-maximized="1"
     fit-margin-top="5"
     fit-margin-left="2"
     fit-margin-right="2"
     fit-margin-bottom="2">
    <inkscape:grid
       type="xygrid"
       id="grid3336"
       originx="-196.55486"
       originy="-558.02226" />
  </sodipodi:namedview>
  <metadata
     id="metadata7">
    <rdf:RDF>
      <cc:Work
         rdf:about="">
        <dc:format>image/svg+xml</dc:format>
        <dc:type
           rdf:resource="http://purl.org/dc/dcmitype/StillImage" />
        <dc:title></dc:title>
      </cc:Work>
    </rdf:RDF>
  </metadata>
  <g
     inkscape:label="Layer 1"
     inkscape:groupmode="layer"
     id="layer1"
     transform="translate(-196.55489,-143.95838)">
    <ellipse
       style="opacity:1;fill:url(#radialGradient4611);fill-opacity:1;stroke:none;stroke-width:2.84299994;stroke-linejoin:round;stroke-miterlimit:4;stroke-dasharray:none;stroke-opacity:1"
       id="path4597"
       cx="394.06863"
       cy="436.5256"
       rx="190.42719"
       ry="50.727779" />
    <path
       style="fill:#00ff00;fill-opacity:1;fill-rule:evenodd;stroke:none;stroke-width:2.84299994;stroke-linecap:butt;stroke-linejoin:round;stroke-miterlimit:4;stroke-dasharray:none;stroke-opacity:1"
       d="m 393.08209,161.67494 c -9.78561,7.3e-4 -14.81912,0.25219 -24.41061,0.75068 l 0,51.82764 c -21.43566,1.12886 -48.71176,3.47152 -66.18217,6.85758 l 0,-54.03872 c -37.07155,7.13266 -56.56273,16.12357 -56.63491,28.02566 0.0401,0.26331 0.0886,0.5265 0.15004,0.78953 l -0.15004,0 0,1.76238 0,0.78952 0,93.02701 0,0.78736 0,12.48988 0,112.86199 0,0.76363 0,0.0238 0,0.76147 0.10849,0 c 1.66332,20.5807 67.02988,37.04457 147.12151,37.05549 80.07546,-0.0167 145.417,-16.47894 147.07996,-37.05549 l 0.15234,0 0,-0.76147 0,-0.0238 0,-126.1155 0,-0.78736 0,-93.02701 c -6e-5,0.0129 -0.002,0.0258 -0.002,0.0389 l 0,-0.0561 c 5.6e-4,0.006 10e-4,0.0115 0.002,0.0172 l 0,-0.78952 -0.002,0 0,-1.76238 -0.1085,0 c 0.0468,-0.26307 0.083,-0.52627 0.1085,-0.78953 -0.0501,-11.81605 -19.20839,-20.73893 -55.82008,-27.88544 l 0,54.0344 c -17.45294,-3.40373 -44.73257,-5.76349 -66.18448,-6.90719 l 0,-51.82979 c -9.84771,-0.54084 -15.15787,-0.82057 -25.22775,-0.83482 z"
       id="tower-body"
       inkscape:connector-curvature="0" />
    <path
       inkscape:connector-curvature="0"
       style="fill:#000000;fill-opacity:0.4831461;fill-rule:evenodd;stroke:none;stroke-width:2.84299994;stroke-linecap:butt;stroke-linejoin:round;stroke-miterlimit:4;stroke-dasharray:none;stroke-opacity:1"
       d="m 393.08209,161.67493 c -9.78561,7.3e-4 -14.81912,0.2522 -24.41061,0.75069 l 0,51.82764 c -21.43566,1.12886 -48.71175,3.47152 -66.18216,6.85757 l 0,-54.03871 c -37.07155,7.13266 -56.56274,16.12357 -56.63492,28.02566 0.0401,0.26331 0.0886,0.52649 0.15005,0.78952 l -0.15005,0 0,1.76455 0.15005,0 c -0.0605,0.25873 -0.11027,0.51758 -0.15005,0.77658 l 0,0.0496 c 0.11689,11.88838 21.96296,23.07258 58.99634,30.1979 l 0,54.05382 c 17.47041,3.38607 37.65762,5.72873 59.09328,6.85757 l 0,-54.05596 c 9.59149,0.49849 19.35246,0.74995 29.13807,0.75068 10.06988,-0.0143 20.1075,-0.29398 29.95522,-0.83482 l 0,54.05382 c 21.4519,-1.14369 41.64034,-3.50344 59.09328,-6.90719 l 0,-54.05813 c 36.61168,-7.1465 58.13369,-18.27832 58.1838,-30.09437 -0.0255,-0.26326 -0.0617,-0.52644 -0.10849,-0.78951 l 0.10849,0 0,-1.76456 -0.10849,0 c 0.0468,-0.26307 0.083,-0.52625 0.10849,-0.78951 -0.0501,-11.81605 -19.20839,-20.73895 -55.82007,-27.88545 l 0,54.0344 c -17.45294,-3.40374 -44.73257,-5.76348 -66.18448,-6.90718 l 0,-51.8298 c -9.84772,-0.54084 -15.15787,-0.82057 -25.22775,-0.83482 z"
       id="rect3356-6-9-5" />
    <path
       sodipodi:nodetypes="ccccccccccccccccccccccccccccccccccccccccscccc"
       style="fill:url(#linearGradient4580);fill-opacity:1;fill-rule:evenodd;stroke:none;stroke-width:2.84299994;stroke-linecap:butt;stroke-linejoin:round;stroke-miterlimit:4;stroke-dasharray:none;stroke-opacity:1"
       d="m 393.08203,161.67493 c -9.78561,7.3e-4 -14.81912,0.2522 -24.41061,0.75069 l 0,51.82764 c -21.43566,1.12886 -48.71175,3.4715 -66.18216,6.85757 l 0,-54.03871 c -37.07154,7.13266 -56.56273,16.12357 -56.63491,28.02566 0.0401,0.26331 0.0886,0.52649 0.15004,0.78952 l -0.15004,0 0,1.76239 0,0.002 0,0.77657 0,0.011 0,0.0389 0,92.98818 0,0.78736 0,12.48989 0,112.86198 0,0.76364 0,0.0237 0,0.76147 0.1085,0 c 1.66331,20.5807 67.02988,37.04459 147.1215,37.0555 80.07547,-0.0167 145.417,-16.47895 147.07996,-37.0555 l 0.15235,0 0,-0.76147 0,-0.0237 0,-126.11551 0,-0.78736 0,-93.02701 c -6e-5,0.0129 -0.002,0.0258 -0.002,0.0389 l 0,-0.0367 0,-0.0194 c 5.7e-4,0.006 10e-4,0.0115 0.002,0.0172 l 0,-0.78951 -0.002,0 0,-1.7624 -0.1085,0 c 0.0468,-0.26307 0.083,-0.52625 0.1085,-0.78951 -0.0501,-11.81605 -19.20839,-20.73895 -55.82007,-27.88546 l 0,54.03441 c -2.18162,-0.42546 -4.51765,-0.83491 -6.97578,-1.22742 -17.20688,-2.74755 -40.43829,-4.67904 -59.2087,-5.67977 l 0,-51.8298 c -8.64043,-0.51822 -16.93056,-0.81328 -25.22781,-0.83482 z"
       id="rect3356-6-7-6"
       inkscape:connector-curvature="0" />
  </g>
  <g
     inkscape:groupmode="layer"
     id="layer2"
     inkscape:label="Layer 2"
     transform="translate(-196.55489,-143.95838)" />
</svg>
