<?xml version="1.0" encoding="UTF-8" standalone="no"?>
<!-- Created with Inkscape (http://www.inkscape.org/) -->

<svg
   xmlns:osb="http://www.openswatchbook.org/uri/2009/osb"
   xmlns:dc="http://purl.org/dc/elements/1.1/"
   xmlns:cc="http://creativecommons.org/ns#"
   xmlns:rdf="http://www.w3.org/1999/02/22-rdf-syntax-ns#"
   xmlns:svg="http://www.w3.org/2000/svg"
   xmlns="http://www.w3.org/2000/svg"
   xmlns:xlink="http://www.w3.org/1999/xlink"
   xmlns:sodipodi="http://sodipodi.sourceforge.net/DTD/sodipodi-0.dtd"
   xmlns:inkscape="http://www.inkscape.org/namespaces/inkscape"
   width="111.48556mm"
   height="98.885475mm"
   viewBox="0 0 395.02751 350.38161"
   id="svg2"
   version="1.1"
   inkscape:version="0.91 r13725"
   sodipodi:docname="app_icon.svg"
   inkscape:export-filename="/home/florian/Projects/react-native/towers/android/app/src/main/res/mipmap-xxhdpi/ic_launcher.png"
   inkscape:export-xdpi="38.273819"
   inkscape:export-ydpi="38.273819">
  <defs
     id="defs4">
    <linearGradient
       inkscape:collect="always"
       id="linearGradient4254">
      <stop
         style="stop-color:#162d50;stop-opacity:1"
         offset="0"
         id="stop4256" />
      <stop
         style="stop-color:#214478;stop-opacity:1"
         offset="1"
         id="stop4258" />
    </linearGradient>
    <linearGradient
       inkscape:collect="always"
       id="linearGradient4246">
      <stop
         style="stop-color:#527cc2;stop-opacity:1"
         offset="0"
         id="stop4248" />
      <stop
         style="stop-color:#7099d9;stop-opacity:1"
         offset="1"
         id="stop4250" />
    </linearGradient>
    <linearGradient
       id="linearGradient4599"
       osb:paint="solid">
      <stop
         style="stop-color:#0000ff;stop-opacity:1;"
         offset="0"
         id="stop4601" />
    </linearGradient>
    <linearGradient
       id="linearGradient4576"
       osb:paint="solid">
      <stop
         style="stop-color:#a70000;stop-opacity:1;"
         offset="0"
         id="stop4578" />
    </linearGradient>
    <linearGradient
       osb:paint="gradient"
       id="linearGradient4433">
      <stop
         style="stop-color:#000000;stop-opacity:0.48901099"
         offset="0"
         id="stop4435" />
      <stop
         id="stop4437"
         offset="0.35665572"
         style="stop-color:#000000;stop-opacity:0" />
      <stop
         style="stop-color:#000000;stop-opacity:0"
         offset="0.64907753"
         id="stop4582" />
      <stop
         style="stop-color:#000000;stop-opacity:0.48901099"
         offset="1"
         id="stop4439" />
    </linearGradient>
    <linearGradient
       id="linearGradient4427"
       osb:paint="solid">
      <stop
         style="stop-color:#550000;stop-opacity:1;"
         offset="0"
         id="stop4429" />
    </linearGradient>
    <linearGradient
       id="linearGradient4419"
       osb:paint="gradient">
      <stop
         style="stop-color:#000000;stop-opacity:1"
         offset="0"
         id="stop4421" />
      <stop
         style="stop-color:#000000;stop-opacity:0;"
         offset="1"
         id="stop4423" />
    </linearGradient>
    <linearGradient
       id="linearGradient4354-2"
       osb:paint="gradient">
      <stop
         id="stop4364"
         offset="0"
         style="stop-color:#000000;stop-opacity:0.71348315" />
      <stop
         style="stop-color:#000000;stop-opacity:0"
         offset="0.5"
         id="stop4372" />
      <stop
         id="stop4366"
         offset="1"
         style="stop-color:#000000;stop-opacity:0.71348315" />
    </linearGradient>
    <linearGradient
       id="linearGradient4354"
       osb:paint="gradient">
      <stop
         style="stop-color:#ff8345;stop-opacity:1;"
         offset="0"
         id="stop4356" />
      <stop
         style="stop-color:#a70000;stop-opacity:0"
         offset="1"
         id="stop4358" />
    </linearGradient>
    <filter
       y="-0.25"
       height="1.5"
       inkscape:menu-tooltip="Darkens the edge with an inner blur and adds a flexible glow"
       inkscape:menu="Shadows and Glows"
       inkscape:label="Dark And Glow"
       style="color-interpolation-filters:sRGB;"
       id="filter4309">
      <feGaussianBlur
         stdDeviation="5"
         result="result6"
         id="feGaussianBlur4311" />
      <feComposite
         result="result8"
         in="SourceGraphic"
         operator="atop"
         in2="result6"
         id="feComposite4313" />
      <feComposite
         result="result9"
         operator="over"
         in2="SourceAlpha"
         in="result8"
         id="feComposite4315" />
      <feColorMatrix
         values="1 0 0 0 0 0 1 0 0 0 0 0 1 0 0 0 0 0 1 0 "
         result="result10"
         id="feColorMatrix4317" />
      <feBlend
         in="result10"
         mode="normal"
         in2="result6"
         id="feBlend4319" />
    </filter>
    <linearGradient
       inkscape:collect="always"
       xlink:href="#linearGradient4246"
       id="linearGradient4252"
       x1="-80.486732"
       y1="491.39328"
       x2="85.695602"
       y2="397.0271"
       gradientUnits="userSpaceOnUse"
       gradientTransform="matrix(1.218374,0,0,1.2212197,441.28783,-185.97119)" />
    <linearGradient
       inkscape:collect="always"
       xlink:href="#linearGradient4254"
       id="linearGradient4260"
       x1="9.6766138"
       y1="356.95926"
       x2="-130.7346"
       y2="368.64975"
       gradientUnits="userSpaceOnUse"
       gradientTransform="matrix(1.218374,0,0,1.2212197,441.28811,-185.87357)" />
    <linearGradient
       gradientTransform="matrix(1.218374,0,0,1.2212197,441.28731,-185.82436)"
       inkscape:collect="always"
       xlink:href="#linearGradient4254"
       id="linearGradient4260-0"
       x1="9.6766138"
       y1="356.95926"
       x2="-130.7346"
       y2="368.64975"
       gradientUnits="userSpaceOnUse" />
  </defs>
  <sodipodi:namedview
     id="base"
     pagecolor="#ffffff"
     bordercolor="#666666"
     borderopacity="1.0"
     inkscape:pageopacity="0"
     inkscape:pageshadow="2"
     inkscape:zoom="1.4"
     inkscape:cx="120.47269"
     inkscape:cy="172.96589"
     inkscape:document-units="px"
     inkscape:current-layer="layer2"
     showgrid="false"
     inkscape:snap-grids="true"
     inkscape:object-nodes="true"
     inkscape:snap-bbox="true"
     inkscape:snap-bbox-edge-midpoints="true"
     inkscape:bbox-nodes="true"
     inkscape:window-width="1920"
     inkscape:window-height="1016"
     inkscape:window-x="1080"
     inkscape:window-y="720"
     inkscape:window-maximized="1"
     fit-margin-top="5"
     fit-margin-left="2"
     fit-margin-right="2"
     fit-margin-bottom="2"
     showguides="true"
     inkscape:bbox-paths="true"
     inkscape:snap-bbox-midpoints="true">
    <inkscape:grid
       type="xygrid"
       id="grid3336"
       originx="-196.55486"
       originy="-558.02226" />
  </sodipodi:namedview>
  <metadata
     id="metadata7">
    <rdf:RDF>
      <cc:Work
         rdf:about="">
        <dc:format>image/svg+xml</dc:format>
        <dc:type
           rdf:resource="http://purl.org/dc/dcmitype/StillImage" />
        <dc:title />
      </cc:Work>
    </rdf:RDF>
  </metadata>
  <g
     inkscape:groupmode="layer"
     id="layer3"
     inkscape:label="Layer 3"
     style="display:inline" />
  <g
     inkscape:label="Layer 1"
     inkscape:groupmode="layer"
     id="layer1"
     transform="translate(-196.55489,-143.95838)"
     style="display:inline" />
  <g
     inkscape:groupmode="layer"
     id="layer2"
     inkscape:label="Layer 2"
     transform="translate(-196.55489,-143.95838)"
     style="display:inline">
    <path
       style="display:inline;fill:url(#linearGradient4260-0);fill-opacity:1;fill-rule:evenodd;stroke:#ffffff;stroke-width:32.0651741;stroke-linecap:butt;stroke-linejoin:round;stroke-miterlimit:4;stroke-dasharray:none;stroke-opacity:1"
       d="m 392.76755,165.8609 c -10.16427,7.5e-4 -15.39242,0.26335 -25.35504,0.78235 l 0,53.95786 c -22.26507,1.17529 -50.59651,3.61361 -68.74293,7.13889 l 0,-56.25959 c -38.50602,7.42595 -58.75205,16.78658 -58.82702,29.1781 0.0416,0.27413 0.0932,0.54666 0.15708,0.82049 l -0.15708,0 0,1.7388 0,0.10009 0,0.71078 c 0.0363,-0.23635 0.0828,-0.47451 0.13566,-0.71078 l 0.0214,0 c -0.0618,0.26539 -0.11368,0.531 -0.15469,0.79664 -1.5e-4,-0.0122 -0.002,-0.0238 -0.002,-0.0357 l 0,0.0478 0,0.0501 0,96.71489 0,0.81813 0,13.00408 0,117.50185 0,0.79666 0,0.0237 0,0.79189 0.11184,0 c 1.72766,21.427 69.62478,38.56916 152.81553,38.58051 83.17396,-0.0174 151.04297,-17.15785 152.77028,-38.58051 l 0.15943,0 0,-0.79189 0,-0.0237 0,-131.30259 0,-0.81813 0,-96.85324 c -6e-5,0.0134 -0.002,0.027 -0.002,0.0404 l 0,-0.038 c -9e-5,0.0223 -0.005,0.0445 -0.005,0.0667 -0.0264,-0.26372 -0.0626,-0.52601 -0.10943,-0.7895 l 0.0143,0 c 0.0406,0.24114 0.0765,0.48133 0.0999,0.72272 l 0,-0.0191 c 5.9e-4,0.007 9.3e-4,0.011 0.002,0.0169 l 0,-0.82049 -0.002,0 0,-1.73882 -0.11417,0 c 0.0487,-0.27388 0.0877,-0.54642 0.11417,-0.82049 -0.052,-12.30194 -19.95151,-21.59222 -57.97987,-29.03261 l 0,56.25721 c -18.12824,-3.5437 -46.46334,-6.00063 -68.7453,-7.19136 l 0,-0.10009 0,-53.86248 c -10.22878,-0.56309 -15.74503,-0.85337 -26.20457,-0.86823 z m 19.26315,0.40071 c 2.11894,0.1067 4.38421,0.22892 6.94139,0.3697 -2.33584,-0.14043 -4.64826,-0.26169 -6.94139,-0.3697 z m 17.80919,54.99307 c 1.88886,0.12567 3.78378,0.25469 5.70876,0.39592 -1.92668,-0.14136 -3.81823,-0.27013 -5.70876,-0.39592 z m 8.95935,0.64638 c 1.75256,0.13551 3.50894,0.27415 5.27089,0.42217 -1.76525,-0.14829 -3.51506,-0.28642 -5.27089,-0.42217 z m 8.95457,0.74418 c 1.65495,0.14718 3.30416,0.29756 4.94963,0.45557 -1.64831,-0.15829 -3.29179,-0.30815 -4.94963,-0.45557 z m 8.70472,0.82767 c 1.70482,0.17367 3.38652,0.35372 5.06147,0.53905 -1.67753,-0.18562 -3.35397,-0.36512 -5.06147,-0.53905 z m 8.32871,0.90636 c 1.9059,0.22281 3.75969,0.45604 5.59928,0.69409 -1.84111,-0.23827 -3.69176,-0.47108 -5.59928,-0.69409 z m 8.08603,1.01371 c 2.5637,0.34786 5.05117,0.70972 7.42206,1.08764 -2.37104,-0.37796 -4.8582,-0.73976 -7.42206,-1.08764 z"
       id="rect3356-6-9-5-2-6"
       inkscape:connector-curvature="0" />
    <path
       style="display:inline;fill:#ffffff;fill-opacity:1;fill-rule:evenodd;stroke:none;stroke-width:2.84299994;stroke-linecap:butt;stroke-linejoin:round;stroke-miterlimit:4;stroke-dasharray:none;stroke-opacity:1"
       d="m 392.76805,165.81153 c -10.16427,7.5e-4 -15.39255,0.26257 -25.35517,0.78153 l 0,53.95882 c -22.26509,1.1753 -50.59665,3.61429 -68.74307,7.13956 l 0,-56.26081 c -38.50602,7.42595 -58.75143,16.78659 -58.82637,29.17809 0.0416,0.27415 0.0919,0.54816 0.15582,0.822 l -0.15582,0 0,1.83486 0,0.82196 0,96.85236 0,0.81975 0,13.00345 0,117.50297 0,0.795 0,0.0248 0,0.7928 0.11269,0 c 1.72766,21.42698 69.62357,38.56787 152.81432,38.57922 83.17395,-0.0173 151.04384,-17.15655 152.77117,-38.57922 l 0.15822,0 0,-0.7928 0,-0.0248 0,-131.30142 0,-0.81975 0,-96.85236 c -6e-5,0.0135 -0.002,0.0268 -0.002,0.0405 l 0,-0.0582 c 5.9e-4,0.007 9.4e-4,0.0122 0.002,0.018 l 0,-0.82197 -0.002,0 0,-1.83485 -0.11271,0 c 0.0486,-0.2739 0.0862,-0.54792 0.11271,-0.82201 -0.052,-12.30191 -19.95162,-21.59172 -57.97999,-29.0321 l 0,56.25633 c -18.12829,-3.54369 -46.4635,-6.0005 -68.74548,-7.19124 l 0,-53.96103 c -10.22876,-0.5631 -15.74441,-0.85431 -26.20393,-0.86915 z"
       id="tower-body-56"
       inkscape:connector-curvature="0" />
    <path
       inkscape:connector-curvature="0"
       style="display:inline;fill:url(#linearGradient4260);fill-opacity:1;fill-rule:evenodd;stroke:none;stroke-width:2.84299994;stroke-linecap:butt;stroke-linejoin:round;stroke-miterlimit:4;stroke-dasharray:none;stroke-opacity:1"
       d="m 392.76805,165.81151 c -10.16427,7.6e-4 -15.39255,0.26259 -25.35517,0.78155 l 0,53.95882 c -22.26509,1.1753 -50.59663,3.61429 -68.74306,7.13955 l 0,-56.2608 c -38.50602,7.42595 -58.75144,16.78659 -58.82638,29.17809 0.0416,0.27415 0.0919,0.54815 0.15584,0.82199 l -0.15584,0 0,1.83711 0.15584,0 c -0.0627,0.26938 -0.11452,0.53887 -0.15584,0.80852 l 0,0.0514 c 0.12147,12.37726 20.785,26.05388 59.25136,33.4722 l 0,56.27654 c 18.14644,3.52533 41.14259,5.96432 63.40769,7.13957 l 2.02779,-56.27877 c 9.96263,0.51898 18.0735,0.78077 28.23777,0.78154 10.45951,-0.015 18.85774,-0.30607 29.08652,-0.86916 l 2.0278,56.27657 c 22.28195,-1.19072 45.2794,-3.64751 63.40767,-7.19121 l 0,-56.28106 c 38.02834,-7.44035 58.35534,-21.06246 58.40739,-33.36439 -0.0266,-0.27409 -0.064,-0.54808 -0.11268,-0.82199 l 0.11268,0 0,-1.83712 -0.11268,0 c 0.0486,-0.27387 0.0862,-0.54786 0.11268,-0.82198 -0.052,-12.30191 -19.95165,-21.59172 -57.97999,-29.03212 l 0,56.25635 c -18.12827,-3.54371 -46.4635,-6.00049 -68.74548,-7.19121 l 0,-53.96106 c -10.22877,-0.56309 -15.7444,-0.85432 -26.20391,-0.86917 z"
       id="rect3356-6-9-5-2"
       sodipodi:nodetypes="ccccccccccccccccccccccccccccccccc" />
    <path
       style="display:inline;fill:url(#linearGradient4252);fill-opacity:1;fill-rule:evenodd;stroke:none;stroke-width:12.00000095;stroke-linecap:butt;stroke-linejoin:round;stroke-miterlimit:4;stroke-dasharray:none;stroke-opacity:1"
       d="m 545.69742,203.16772 0,0.002 -0.11368,0 c 0.0487,0.27386 0.087,0.54741 0.11368,0.82148 l 0,-0.0203 c 5.7e-4,0.007 9.4e-4,0.0123 0.002,0.0183 l 0,-0.8215 -0.002,0 z m 0.002,0.82151 c -6e-5,0.0135 -0.002,0.0271 -0.002,0.0408 l 0,-0.0386 c -0.052,12.30193 -22.40665,23.89289 -60.435,31.33325 l 0,56.27952 c -18.12828,3.54371 -39.09838,6.00155 -61.38035,7.19227 l 0,-56.27746 c -10.22879,0.56307 -20.65466,0.85542 -31.11418,0.87031 -10.16426,-7.7e-4 -20.30356,-0.26388 -30.26618,-0.78291 l 0,56.27952 c -22.26511,-1.17524 -43.23397,-3.6141 -61.38038,-7.1394 l 0,-56.27747 c -38.46637,-7.4183 -61.15751,-19.06176 -61.27893,-31.43899 l 0,96.81203 0,0.81947 0,13.00386 0,117.50223 0,0.7951 0,0.0243 0,0.79303 0.11369,0 c 1.72764,21.42699 69.62313,38.56907 152.81389,38.58044 83.17395,-0.0173 151.04396,-17.15777 152.77126,-38.58044 l 0.15825,0 0,-0.79303 0,-0.0243 0,-131.30119 0,-0.81947 0,-96.85269 z m -305.85701,-0.81946 0,0.8093 c 0.0413,-0.26965 0.0934,-0.53994 0.1562,-0.8093 z"
       id="rect3356-6-7-6-0"
       inkscape:connector-curvature="0"
       sodipodi:nodetypes="ccccccccccccccccccccccccccccccccccccccccccc" />
    <path
       style="fill:#000000;fill-opacity:0.05208333;fill-rule:evenodd;stroke:none;stroke-width:1px;stroke-linecap:butt;stroke-linejoin:miter;stroke-opacity:1"
       d="m 301.12259,291.84415 82.73888,180.08426 57.93702,-1.81475 -79.29601,-171.12995 c -21.59199,-1.24519 -41.70569,-3.97209 -61.37989,-7.13956 z"
       id="path4316"
       inkscape:connector-curvature="0"
       sodipodi:nodetypes="ccccc" />
    <path
       style="fill:#000000;fill-opacity:0.03645833;fill-rule:evenodd;stroke:none;stroke-width:1px;stroke-linecap:butt;stroke-linejoin:miter;stroke-opacity:1"
       d="m 424.13809,298.79629 75.23532,161.88061 c 22.65211,-6.02088 42.59214,-13.12913 46.16819,-26.79825 L 484.75013,291.95932 c -18.65131,3.5732 -39.10887,5.16947 -60.61204,6.83697 z"
       id="path4318"
       inkscape:connector-curvature="0"
       sodipodi:nodetypes="ccccc" />
  </g>
</svg>
